<svg width="913" height="570" viewBox="0 0 913 570" fill="none" xmlns="http://www.w3.org/2000/svg">
<g filter="url(#filter0_d_2319_91)">
<path d="M32 74.255V49C32 37.402 41.402 28 53 28H174.084H242.757H316.167H366.788H381.453C393.051 28 402.453 37.402 402.453 49V53.255C402.453 64.853 411.855 74.255 423.453 74.255H481.836H860C871.598 74.255 881 83.657 881 95.255V636C881 647.598 871.598 657 860 657H53C41.402 657 32 647.598 32 636V74.255Z" fill="url(#paint0_linear_2319_91)"/>
</g>
<defs>
<filter id="filter0_d_2319_91" x="0.9" y="0.9" width="911.2" height="691.2" filterUnits="userSpaceOnUse" color-interpolation-filters="sRGB">
<feFlood flood-opacity="0" result="BackgroundImageFix"/>
<feColorMatrix in="SourceAlpha" type="matrix" values="0 0 0 0 0 0 0 0 0 0 0 0 0 0 0 0 0 0 127 0" result="hardAlpha"/>
<feOffset dy="4"/>
<feGaussianBlur stdDeviation="15.55"/>
<feComposite in2="hardAlpha" operator="out"/>
<feColorMatrix type="matrix" values="0 0 0 0 0 0 0 0 0 0 0 0 0 0 0 0 0 0 0.3 0"/>
<feBlend mode="normal" in2="BackgroundImageFix" result="effect1_dropShadow_2319_91"/>
<feBlend mode="normal" in="SourceGraphic" in2="effect1_dropShadow_2319_91" result="shape"/>
</filter>
<linearGradient id="paint0_linear_2319_91" x1="456.5" y1="28" x2="456.5" y2="1029.5" gradientUnits="userSpaceOnUse">
<stop stop-color="#272442"/>
<stop offset="0.688914" stop-color="#043F35"/>
</linearGradient>
</defs>
</svg>
