<svg width="879" height="432" viewBox="0 0 879 432" fill="none" xmlns="http://www.w3.org/2000/svg">
<g filter="url(#filter0_dd_2318_75)">
<path d="M22 60.878C22 49.28 31.402 39.878 43 39.878H428.561C434.602 39.878 439.5 34.9805 439.5 28.939C439.5 22.8976 444.398 18 450.439 18H645.5H836C847.598 18 857 27.402 857 39V385C857 396.598 847.598 406 836 406H43C31.402 406 22 396.598 22 385V60.878Z" fill="#272442"/>
<path d="M43 38.878C30.8497 38.878 21 48.7277 21 60.878V385C21 397.15 30.8497 407 43 407H836C848.15 407 858 397.15 858 385V39C858 26.8497 848.15 17 836 17H645.5H450.439C443.845 17 438.5 22.3453 438.5 28.939C438.5 34.4282 434.05 38.878 428.561 38.878H43Z" stroke="white" stroke-width="2"/>
</g>
<defs>
<filter id="filter0_dd_2318_75" x="0" y="0" width="879" height="432" filterUnits="userSpaceOnUse" color-interpolation-filters="sRGB">
<feFlood flood-opacity="0" result="BackgroundImageFix"/>
<feColorMatrix in="SourceAlpha" type="matrix" values="0 0 0 0 0 0 0 0 0 0 0 0 0 0 0 0 0 0 127 0" result="hardAlpha"/>
<feOffset dy="4"/>
<feGaussianBlur stdDeviation="10"/>
<feComposite in2="hardAlpha" operator="out"/>
<feColorMatrix type="matrix" values="0 0 0 0 0 0 0 0 0 0 0 0 0 0 0 0 0 0 0.5 0"/>
<feBlend mode="normal" in2="BackgroundImageFix" result="effect1_dropShadow_2318_75"/>
<feColorMatrix in="SourceAlpha" type="matrix" values="0 0 0 0 0 0 0 0 0 0 0 0 0 0 0 0 0 0 127 0" result="hardAlpha"/>
<feOffset/>
<feGaussianBlur stdDeviation="5"/>
<feComposite in2="hardAlpha" operator="out"/>
<feColorMatrix type="matrix" values="0 0 0 0 0.873249 0 0 0 0 1 0 0 0 0 0.951101 0 0 0 0.6 0"/>
<feBlend mode="normal" in2="effect1_dropShadow_2318_75" result="effect2_dropShadow_2318_75"/>
<feBlend mode="normal" in="SourceGraphic" in2="effect2_dropShadow_2318_75" result="shape"/>
</filter>
</defs>
</svg>
